<?xml version="1.0" encoding="UTF-8"?>
<svg version="1.1" xmlns="http://www.w3.org/2000/svg" width="144" height="144">
<path d="M0 0 C47.52 0 95.04 0 144 0 C144 47.52 144 95.04 144 144 C96.48 144 48.96 144 0 144 C0 96.48 0 48.96 0 0 Z " fill="#8E553C" transform="translate(0,0)"/>
<path d="M0 0 C47.52 0 95.04 0 144 0 C144 2.97 144 5.94 144 9 C140.04 9 136.08 9 132 9 C132 9.99 132 10.98 132 12 C130.02 12 128.04 12 126 12 C126 16.95 126 21.9 126 27 C125.01 27 124.02 27 123 27 C123 27.99 123 28.98 123 30 C122.01 30 121.02 30 120 30 C120 30.99 120 31.98 120 33 C119.01 33 118.02 33 117 33 C117 33.99 117 34.98 117 36 C114.03 36 111.06 36 108 36 C108 35.01 108 34.02 108 33 C107.01 33 106.02 33 105 33 C105 33.99 105 34.98 105 36 C103.02 36 101.04 36 99 36 C99 62.73 99 89.46 99 117 C100.98 117 102.96 117 105 117 C105 117.99 105 118.98 105 120 C105.99 120 106.98 120 108 120 C108 120.99 108 121.98 108 123 C98.1 123 88.2 123 78 123 C78 122.01 78 121.02 78 120 C79.98 120 81.96 120 84 120 C84 106.14 84 92.28 84 78 C83.01 78 82.02 78 81 78 C81 90.87 81 103.74 81 117 C80.01 117 79.02 117 78 117 C78 104.13 78 91.26 78 78 C72.06 78 66.12 78 60 78 C60 78.99 60 79.98 60 81 C59.01 81 58.02 81 57 81 C57 81.99 57 82.98 57 84 C54.03 84 51.06 84 48 84 C48 85.98 48 87.96 48 90 C49.98 90 51.96 90 54 90 C54 89.01 54 88.02 54 87 C55.98 87 57.96 87 60 87 C60 97.89 60 108.78 60 120 C58.02 120 56.04 120 54 120 C54 120.99 54 121.98 54 123 C48.06 123 42.12 123 36 123 C36 122.01 36 121.02 36 120 C36.99 120 37.98 120 39 120 C39 119.01 39 118.02 39 117 C40.98 117 42.96 117 45 117 C45 110.07 45 103.14 45 96 C44.01 96 43.02 96 42 96 C42 101.94 42 107.88 42 114 C41.01 114 40.02 114 39 114 C39 110.04 39 106.08 39 102 C38.01 102 37.02 102 36 102 C36 98.04 36 94.08 36 90 C36.99 90 37.98 90 39 90 C39 82.08 39 74.16 39 66 C28.11 66 17.22 66 6 66 C6 65.01 6 64.02 6 63 C4.02 63 2.04 63 0 63 C0 42.21 0 21.42 0 0 Z " fill="#8E553D" transform="translate(0,0)"/>
<path d="M0 0 C9.9 0 19.8 0 30 0 C30 0.99 30 1.98 30 3 C29.01 3 28.02 3 27 3 C27 3.99 27 4.98 27 6 C25.02 6 23.04 6 21 6 C21 32.73 21 59.46 21 87 C22.98 87 24.96 87 27 87 C27 87.99 27 88.98 27 90 C27.99 90 28.98 90 30 90 C30 90.99 30 91.98 30 93 C20.1 93 10.2 93 0 93 C0 92.01 0 91.02 0 90 C1.98 90 3.96 90 6 90 C6 76.14 6 62.28 6 48 C5.01 48 4.02 48 3 48 C3 60.87 3 73.74 3 87 C2.01 87 1.02 87 0 87 C0 74.13 0 61.26 0 48 C-5.94 48 -11.88 48 -18 48 C-18 48.99 -18 49.98 -18 51 C-18.99 51 -19.98 51 -21 51 C-21 51.99 -21 52.98 -21 54 C-23.97 54 -26.94 54 -30 54 C-30 55.98 -30 57.96 -30 60 C-28.02 60 -26.04 60 -24 60 C-24 59.01 -24 58.02 -24 57 C-22.02 57 -20.04 57 -18 57 C-18 67.89 -18 78.78 -18 90 C-19.98 90 -21.96 90 -24 90 C-24 90.99 -24 91.98 -24 93 C-29.94 93 -35.88 93 -42 93 C-42 92.01 -42 91.02 -42 90 C-41.01 90 -40.02 90 -39 90 C-39 89.01 -39 88.02 -39 87 C-37.02 87 -35.04 87 -33 87 C-33 80.07 -33 73.14 -33 66 C-33.99 66 -34.98 66 -36 66 C-36 71.94 -36 77.88 -36 84 C-36.99 84 -37.98 84 -39 84 C-39 80.04 -39 76.08 -39 72 C-39.99 72 -40.98 72 -42 72 C-42 68.04 -42 64.08 -42 60 C-41.01 60 -40.02 60 -39 60 C-39 51.09 -39 42.18 -39 33 C-38.01 33 -37.02 33 -36 33 C-36 40.92 -36 48.84 -36 57 C-35.01 57 -34.02 57 -33 57 C-33 50.07 -33 43.14 -33 36 C-20.13 36 -7.26 36 6 36 C6 25.11 6 14.22 6 3 C4.02 3 2.04 3 0 3 C0 2.01 0 1.02 0 0 Z " fill="#FEFDFA" transform="translate(78,30)"/>
<path d="M0 0 C3.96 0 7.92 0 12 0 C12 18.81 12 37.62 12 57 C8.04 57 4.08 57 0 57 C0 56.01 0 55.02 0 54 C-10.89 54 -21.78 54 -33 54 C-33 45.09 -33 36.18 -33 27 C-31.02 27 -29.04 27 -27 27 C-27 26.01 -27 25.02 -27 24 C-26.01 24 -25.02 24 -24 24 C-24 24.99 -24 25.98 -24 27 C-21.03 27 -18.06 27 -15 27 C-15 26.01 -15 25.02 -15 24 C-14.01 24 -13.02 24 -12 24 C-12 23.01 -12 22.02 -12 21 C-11.01 21 -10.02 21 -9 21 C-9 20.01 -9 19.02 -9 18 C-8.01 18 -7.02 18 -6 18 C-6 13.05 -6 8.1 -6 3 C-4.02 3 -2.04 3 0 3 C0 2.01 0 1.02 0 0 Z " fill="#8E553D" transform="translate(132,9)"/>
<path d="M0 0 C2.97 0 5.94 0 9 0 C9 0.99 9 1.98 9 3 C9.99 3 10.98 3 12 3 C12 2.01 12 1.02 12 0 C37.74 0 63.48 0 90 0 C90 1.98 90 3.96 90 6 C81.09 6 72.18 6 63 6 C63 6.99 63 7.98 63 9 C61.02 9 59.04 9 57 9 C57 9.99 57 10.98 57 12 C59.97 12 62.94 12 66 12 C66 20.91 66 29.82 66 39 C65.01 39 64.02 39 63 39 C63 33.06 63 27.12 63 21 C61.02 21 59.04 21 57 21 C57 21.99 57 22.98 57 24 C53.04 24 49.08 24 45 24 C45 27.96 45 31.92 45 36 C40.05 36 35.1 36 30 36 C30 28.08 30 20.16 30 12 C28.02 12 26.04 12 24 12 C24 11.01 24 10.02 24 9 C18.06 9 12.12 9 6 9 C6 9.99 6 10.98 6 12 C5.01 12 4.02 12 3 12 C3 15.96 3 19.92 3 24 C3.99 24 4.98 24 6 24 C6 24.99 6 25.98 6 27 C8.97 27 11.94 27 15 27 C15 28.98 15 30.96 15 33 C13.02 33 11.04 33 9 33 C9 33.99 9 34.98 9 36 C8.01 36 7.02 36 6 36 C6 34.02 6 32.04 6 30 C5.01 30 4.02 30 3 30 C3 30.99 3 31.98 3 33 C2.01 33 1.02 33 0 33 C0 31.02 0 29.04 0 27 C-0.99 27 -1.98 27 -3 27 C-3 26.01 -3 25.02 -3 24 C-3.99 24 -4.98 24 -6 24 C-6 23.01 -6 22.02 -6 21 C-6.99 21 -7.98 21 -9 21 C-9 20.01 -9 19.02 -9 18 C-7.02 18 -5.04 18 -3 18 C-3 17.01 -3 16.02 -3 15 C-3.99 15 -4.98 15 -6 15 C-6 13.02 -6 11.04 -6 9 C-5.01 9 -4.02 9 -3 9 C-3 8.01 -3 7.02 -3 6 C-0.03 6 2.94 6 6 6 C6 5.01 6 4.02 6 3 C4.02 3 2.04 3 0 3 C0 2.01 0 1.02 0 0 Z " fill="#8C563E" transform="translate(15,24)"/>
<path d="M0 0 C47.52 0 95.04 0 144 0 C144 2.97 144 5.94 144 9 C140.04 9 136.08 9 132 9 C132 9.99 132 10.98 132 12 C130.02 12 128.04 12 126 12 C126 16.95 126 21.9 126 27 C125.01 27 124.02 27 123 27 C123 27.99 123 28.98 123 30 C122.01 30 121.02 30 120 30 C120 30.99 120 31.98 120 33 C119.01 33 118.02 33 117 33 C117 33.99 117 34.98 117 36 C114.03 36 111.06 36 108 36 C108 31.05 108 26.1 108 21 C108.99 21 109.98 21 111 21 C111 19.02 111 17.04 111 15 C110.01 15 109.02 15 108 15 C108 15.99 108 16.98 108 18 C107.01 18 106.02 18 105 18 C105 15.03 105 12.06 105 9 C97.08 9 89.16 9 81 9 C81 8.01 81 7.02 81 6 C55.26 6 29.52 6 3 6 C3 6.99 3 7.98 3 9 C2.01 9 1.02 9 0 9 C0 6.03 0 3.06 0 0 Z " fill="#8D563C" transform="translate(0,0)"/>
<path d="M0 0 C5.94 0 11.88 0 18 0 C18 0.99 18 1.98 18 3 C19.98 3 21.96 3 24 3 C24 10.92 24 18.84 24 27 C28.95 27 33.9 27 39 27 C39 23.04 39 19.08 39 15 C42.96 15 46.92 15 51 15 C51 14.01 51 13.02 51 12 C52.98 12 54.96 12 57 12 C57 17.94 57 23.88 57 30 C57.99 30 58.98 30 60 30 C60 21.09 60 12.18 60 3 C57.03 3 54.06 3 51 3 C51 2.01 51 1.02 51 0 C54.96 0 58.92 0 63 0 C63 10.89 63 21.78 63 33 C50.13 33 37.26 33 24 33 C24 39.93 24 46.86 24 54 C23.01 54 22.02 54 21 54 C21 46.08 21 38.16 21 30 C18.03 30 15.06 30 12 30 C12 29.01 12 28.02 12 27 C9.03 27 6.06 27 3 27 C3 26.01 3 25.02 3 24 C4.98 24 6.96 24 9 24 C9 22.02 9 20.04 9 18 C6.03 18 3.06 18 0 18 C0 17.01 0 16.02 0 15 C-0.99 15 -1.98 15 -3 15 C-3 11.04 -3 7.08 -3 3 C-2.01 3 -1.02 3 0 3 C0 2.01 0 1.02 0 0 Z " fill="#60613B" transform="translate(21,33)"/>
<path d="M0 0 C0.99 0 1.98 0 3 0 C3 1.98 3 3.96 3 6 C2.01 6 1.02 6 0 6 C0 8.97 0 11.94 0 15 C-0.99 15 -1.98 15 -3 15 C-3 13.02 -3 11.04 -3 9 C-28.74 9 -54.48 9 -81 9 C-81 9.99 -81 10.98 -81 12 C-81.99 12 -82.98 12 -84 12 C-84 11.01 -84 10.02 -84 9 C-86.97 9 -89.94 9 -93 9 C-93 9.99 -93 10.98 -93 12 C-91.02 12 -89.04 12 -87 12 C-87 12.99 -87 13.98 -87 15 C-89.97 15 -92.94 15 -96 15 C-96 15.99 -96 16.98 -96 18 C-96.99 18 -97.98 18 -99 18 C-99 19.98 -99 21.96 -99 24 C-98.01 24 -97.02 24 -96 24 C-96 24.99 -96 25.98 -96 27 C-97.98 27 -99.96 27 -102 27 C-102 27.99 -102 28.98 -102 30 C-101.01 30 -100.02 30 -99 30 C-99 30.99 -99 31.98 -99 33 C-98.01 33 -97.02 33 -96 33 C-96 33.99 -96 34.98 -96 36 C-95.01 36 -94.02 36 -93 36 C-93 37.98 -93 39.96 -93 42 C-92.01 42 -91.02 42 -90 42 C-90 41.01 -90 40.02 -90 39 C-89.01 39 -88.02 39 -87 39 C-87 40.98 -87 42.96 -87 45 C-83.04 45 -79.08 45 -75 45 C-75 45.99 -75 46.98 -75 48 C-73.02 48 -71.04 48 -69 48 C-69 48.99 -69 49.98 -69 51 C-79.89 51 -90.78 51 -102 51 C-102 50.01 -102 49.02 -102 48 C-103.98 48 -105.96 48 -108 48 C-108 34.14 -108 20.28 -108 6 C-73.35 6 -38.7 6 -3 6 C-3 5.01 -3 4.02 -3 3 C-2.01 3 -1.02 3 0 3 C0 2.01 0 1.02 0 0 Z " fill="#8F5613" transform="translate(108,15)"/>
<path d="M0 0 C11.88 0 23.76 0 36 0 C36 6.93 36 13.86 36 21 C29.07 21 22.14 21 15 21 C15 20.01 15 19.02 15 18 C11.04 18 7.08 18 3 18 C3 18.99 3 19.98 3 21 C-0.96 21 -4.92 21 -9 21 C-9 15.06 -9 9.12 -9 3 C-6.03 3 -3.06 3 0 3 C0 2.01 0 1.02 0 0 Z " fill="#8E553D" transform="translate(108,87)"/>
<path d="M0 0 C0.99 0 1.98 0 3 0 C3 7.92 3 15.84 3 24 C4.98 24 6.96 24 9 24 C9 24.99 9 25.98 9 27 C10.98 27 12.96 27 15 27 C15 26.01 15 25.02 15 24 C16.98 24 18.96 24 21 24 C21 34.89 21 45.78 21 57 C19.02 57 17.04 57 15 57 C15 57.99 15 58.98 15 60 C9.06 60 3.12 60 -3 60 C-3 59.01 -3 58.02 -3 57 C-2.01 57 -1.02 57 0 57 C0 56.01 0 55.02 0 54 C1.98 54 3.96 54 6 54 C6 47.07 6 40.14 6 33 C5.01 33 4.02 33 3 33 C3 38.94 3 44.88 3 51 C2.01 51 1.02 51 0 51 C0 47.04 0 43.08 0 39 C-0.99 39 -1.98 39 -3 39 C-3 35.04 -3 31.08 -3 27 C-2.01 27 -1.02 27 0 27 C0 18.09 0 9.18 0 0 Z " fill="#FEFEF6" transform="translate(39,63)"/>
<path d="M0 0 C3.96 0 7.92 0 12 0 C12 10.89 12 21.78 12 33 C-0.87 33 -13.74 33 -27 33 C-27 39.93 -27 46.86 -27 54 C-27.99 54 -28.98 54 -30 54 C-30 46.08 -30 38.16 -30 30 C-23.07 30 -16.14 30 -9 30 C-9 29.01 -9 28.02 -9 27 C-9.99 27 -10.98 27 -12 27 C-12 23.04 -12 19.08 -12 15 C-8.04 15 -4.08 15 0 15 C0 14.01 0 13.02 0 12 C1.98 12 3.96 12 6 12 C6 17.94 6 23.88 6 30 C6.99 30 7.98 30 9 30 C9 21.09 9 12.18 9 3 C6.03 3 3.06 3 0 3 C0 2.01 0 1.02 0 0 Z " fill="#8E553C" transform="translate(72,33)"/>
<path d="M0 0 C0.99 0 1.98 0 3 0 C3 0.99 3 1.98 3 3 C11.91 3 20.82 3 30 3 C30 3.99 30 4.98 30 6 C28.02 6 26.04 6 24 6 C24 14.91 24 23.82 24 33 C19.05 33 14.1 33 9 33 C9 25.08 9 17.16 9 9 C7.02 9 5.04 9 3 9 C3 8.01 3 7.02 3 6 C1.02 6 -0.96 6 -3 6 C-3 5.01 -3 4.02 -3 3 C-2.01 3 -1.02 3 0 3 C0 2.01 0 1.02 0 0 Z " fill="#FEFDF8" transform="translate(36,27)"/>
<path d="M0 0 C2.97 0 5.94 0 9 0 C9 0.99 9 1.98 9 3 C9.99 3 10.98 3 12 3 C12 2.01 12 1.02 12 0 C12.99 0 13.98 0 15 0 C15 0.99 15 1.98 15 3 C15.99 3 16.98 3 18 3 C18 4.98 18 6.96 18 9 C14.04 9 10.08 9 6 9 C6 9.99 6 10.98 6 12 C5.01 12 4.02 12 3 12 C3 15.96 3 19.92 3 24 C3.99 24 4.98 24 6 24 C6 24.99 6 25.98 6 27 C8.97 27 11.94 27 15 27 C15 28.98 15 30.96 15 33 C13.02 33 11.04 33 9 33 C9 33.99 9 34.98 9 36 C8.01 36 7.02 36 6 36 C6 34.02 6 32.04 6 30 C5.01 30 4.02 30 3 30 C3 30.99 3 31.98 3 33 C2.01 33 1.02 33 0 33 C0 31.02 0 29.04 0 27 C-0.99 27 -1.98 27 -3 27 C-3 26.01 -3 25.02 -3 24 C-3.99 24 -4.98 24 -6 24 C-6 23.01 -6 22.02 -6 21 C-6.99 21 -7.98 21 -9 21 C-9 20.01 -9 19.02 -9 18 C-7.02 18 -5.04 18 -3 18 C-3 17.01 -3 16.02 -3 15 C-3.99 15 -4.98 15 -6 15 C-6 13.02 -6 11.04 -6 9 C-5.01 9 -4.02 9 -3 9 C-3 8.01 -3 7.02 -3 6 C-0.03 6 2.94 6 6 6 C6 5.01 6 4.02 6 3 C4.02 3 2.04 3 0 3 C0 2.01 0 1.02 0 0 Z " fill="#C47E1F" transform="translate(15,24)"/>
<path d="M0 0 C3.96 0 7.92 0 12 0 C12 0.99 12 1.98 12 3 C10.02 3 8.04 3 6 3 C6 7.95 6 12.9 6 18 C5.01 18 4.02 18 3 18 C3 18.99 3 19.98 3 21 C2.01 21 1.02 21 0 21 C0 21.99 0 22.98 0 24 C-0.99 24 -1.98 24 -3 24 C-3 24.99 -3 25.98 -3 27 C-5.97 27 -8.94 27 -12 27 C-12 22.05 -12 17.1 -12 12 C-11.01 12 -10.02 12 -9 12 C-9 10.02 -9 8.04 -9 6 C-8.01 6 -7.02 6 -6 6 C-6 5.01 -6 4.02 -6 3 C-4.02 3 -2.04 3 0 3 C0 2.01 0 1.02 0 0 Z " fill="#547B42" transform="translate(120,9)"/>
<path d="M0 0 C0.99 0 1.98 0 3 0 C3 1.98 3 3.96 3 6 C2.01 6 1.02 6 0 6 C0 8.97 0 11.94 0 15 C-0.99 15 -1.98 15 -3 15 C-3 13.02 -3 11.04 -3 9 C-28.74 9 -54.48 9 -81 9 C-81 9.99 -81 10.98 -81 12 C-81.99 12 -82.98 12 -84 12 C-84 11.01 -84 10.02 -84 9 C-91.92 9 -99.84 9 -108 9 C-108 8.01 -108 7.02 -108 6 C-73.35 6 -38.7 6 -3 6 C-3 5.01 -3 4.02 -3 3 C-2.01 3 -1.02 3 0 3 C0 2.01 0 1.02 0 0 Z " fill="#6D3922" transform="translate(108,15)"/>
<path d="M0 0 C25.74 0 51.48 0 78 0 C78 0.99 78 1.98 78 3 C85.92 3 93.84 3 102 3 C102 4.98 102 6.96 102 9 C101.01 9 100.02 9 99 9 C99 8.01 99 7.02 99 6 C91.08 6 83.16 6 75 6 C75 5.01 75 4.02 75 3 C55.2 3 35.4 3 15 3 C15 3.99 15 4.98 15 6 C9.06 6 3.12 6 -3 6 C-3 5.01 -3 4.02 -3 3 C-2.01 3 -1.02 3 0 3 C0 2.01 0 1.02 0 0 Z " fill="#6C3826" transform="translate(3,6)"/>
<path d="M0 0 C10.89 0 21.78 0 33 0 C33 0.99 33 1.98 33 3 C36.96 3 40.92 3 45 3 C45 3.99 45 4.98 45 6 C41.04 6 37.08 6 33 6 C33 6.99 33 7.98 33 9 C22.11 9 11.22 9 0 9 C0 6.03 0 3.06 0 0 Z " fill="#8E553D" transform="translate(99,63)"/>
<path d="M0 0 C18.81 0 37.62 0 57 0 C57 0.99 57 1.98 57 3 C55.02 3 53.04 3 51 3 C51 3.99 51 4.98 51 6 C48.03 6 45.06 6 42 6 C42 5.01 42 4.02 42 3 C41.01 3 40.02 3 39 3 C39 3.99 39 4.98 39 6 C38.01 6 37.02 6 36 6 C36 5.01 36 4.02 36 3 C34.02 3 32.04 3 30 3 C30 3.99 30 4.98 30 6 C24.06 6 18.12 6 12 6 C12 5.01 12 4.02 12 3 C8.04 3 4.08 3 0 3 C0 2.01 0 1.02 0 0 Z " fill="#6C3825" transform="translate(87,129)"/>
<path d="M0 0 C1.98 0 3.96 0 6 0 C6 0.99 6 1.98 6 3 C16.89 3 27.78 3 39 3 C39 4.98 39 6.96 39 9 C26.13 9 13.26 9 0 9 C0 6.03 0 3.06 0 0 Z " fill="#8E553D" transform="translate(0,63)"/>
<path d="M0 0 C3.96 0 7.92 0 12 0 C12 0.99 12 1.98 12 3 C12.99 3 13.98 3 15 3 C15 6.96 15 10.92 15 15 C14.01 15 13.02 15 12 15 C12 13.02 12 11.04 12 9 C11.01 9 10.02 9 9 9 C9 9.99 9 10.98 9 12 C8.01 12 7.02 12 6 12 C6 12.99 6 13.98 6 15 C6.99 15 7.98 15 9 15 C9 15.99 9 16.98 9 18 C6.03 18 3.06 18 0 18 C0 17.01 0 16.02 0 15 C-0.99 15 -1.98 15 -3 15 C-3 11.04 -3 7.08 -3 3 C-2.01 3 -1.02 3 0 3 C0 2.01 0 1.02 0 0 Z " fill="#61480D" transform="translate(21,33)"/>
<path d="M0 0 C3.96 0 7.92 0 12 0 C12 4.95 12 9.9 12 15 C6.06 15 0.12 15 -6 15 C-6 11.04 -6 7.08 -6 3 C-4.02 3 -2.04 3 0 3 C0 2.01 0 1.02 0 0 Z " fill="#6B3826" transform="translate(132,9)"/>
<path d="M0 0 C2.97 0 5.94 0 9 0 C9 8.91 9 17.82 9 27 C8.01 27 7.02 27 6 27 C6 21.06 6 15.12 6 9 C4.02 9 2.04 9 0 9 C0 9.99 0 10.98 0 12 C-3.96 12 -7.92 12 -12 12 C-12 9.03 -12 6.06 -12 3 C-8.04 3 -4.08 3 0 3 C0 2.01 0 1.02 0 0 Z " fill="#8D563D" transform="translate(72,36)"/>
<path d="M0 0 C0.99 0 1.98 0 3 0 C3 7.92 3 15.84 3 24 C4.98 24 6.96 24 9 24 C9 25.98 9 27.96 9 30 C8.01 30 7.02 30 6 30 C6 30.99 6 31.98 6 33 C5.01 33 4.02 33 3 33 C3 38.94 3 44.88 3 51 C2.01 51 1.02 51 0 51 C0 47.04 0 43.08 0 39 C-0.99 39 -1.98 39 -3 39 C-3 35.04 -3 31.08 -3 27 C-2.01 27 -1.02 27 0 27 C0 18.09 0 9.18 0 0 Z " fill="#60754F" transform="translate(39,63)"/>
<path d="M0 0 C11.88 0 23.76 0 36 0 C36 1.98 36 3.96 36 6 C22.14 6 8.28 6 -6 6 C-6 5.01 -6 4.02 -6 3 C-4.02 3 -2.04 3 0 3 C0 2.01 0 1.02 0 0 Z " fill="#6C3827" transform="translate(108,87)"/>
<path d="M0 0 C0.99 0 1.98 0 3 0 C3 0.99 3 1.98 3 3 C10.92 3 18.84 3 27 3 C27 3.99 27 4.98 27 6 C24.03 6 21.06 6 18 6 C18 6.99 18 7.98 18 9 C19.98 9 21.96 9 24 9 C24 9.99 24 10.98 24 12 C16.08 12 8.16 12 0 12 C0 8.04 0 4.08 0 0 Z " fill="#6A3829" transform="translate(0,102)"/>
<path d="M0 0 C10.89 0 21.78 0 33 0 C33 0.99 33 1.98 33 3 C34.98 3 36.96 3 39 3 C39 3.99 39 4.98 39 6 C28.11 6 17.22 6 6 6 C6 5.01 6 4.02 6 3 C4.02 3 2.04 3 0 3 C0 2.01 0 1.02 0 0 Z " fill="#693A26" transform="translate(0,60)"/>
<path d="M0 0 C3.96 0 7.92 0 12 0 C12 0.99 12 1.98 12 3 C10.02 3 8.04 3 6 3 C6 3.99 6 4.98 6 6 C4.02 6 2.04 6 0 6 C0 6.99 0 7.98 0 9 C-0.99 9 -1.98 9 -3 9 C-3 9.99 -3 10.98 -3 12 C-3.99 12 -4.98 12 -6 12 C-6 12.99 -6 13.98 -6 15 C-4.02 15 -2.04 15 0 15 C0 15.99 0 16.98 0 18 C-0.99 18 -1.98 18 -3 18 C-3 18.99 -3 19.98 -3 21 C-4.98 21 -6.96 21 -9 21 C-9 20.01 -9 19.02 -9 18 C-9.99 18 -10.98 18 -12 18 C-12 16.02 -12 14.04 -12 12 C-11.01 12 -10.02 12 -9 12 C-9 10.02 -9 8.04 -9 6 C-8.01 6 -7.02 6 -6 6 C-6 5.01 -6 4.02 -6 3 C-4.02 3 -2.04 3 0 3 C0 2.01 0 1.02 0 0 Z " fill="#76B24E" transform="translate(120,9)"/>
<path d="M0 0 C4.95 0 9.9 0 15 0 C15 1.98 15 3.96 15 6 C15.99 6 16.98 6 18 6 C18 5.01 18 4.02 18 3 C18.99 3 19.98 3 21 3 C21 4.98 21 6.96 21 9 C14.07 9 7.14 9 0 9 C0 6.03 0 3.06 0 0 Z " fill="#965F3D" transform="translate(0,51)"/>
<path d="M0 0 C16.83 0 33.66 0 51 0 C51 0.99 51 1.98 51 3 C34.17 3 17.34 3 0 3 C0 2.01 0 1.02 0 0 Z " fill="#6C3926" transform="translate(24,12)"/>
<path d="M0 0 C0.99 0 1.98 0 3 0 C3 1.98 3 3.96 3 6 C-3.93 6 -10.86 6 -18 6 C-18 12.93 -18 19.86 -18 27 C-18.99 27 -19.98 27 -21 27 C-21 19.08 -21 11.16 -21 3 C-14.07 3 -7.14 3 0 3 C0 2.01 0 1.02 0 0 Z " fill="#446844" transform="translate(63,60)"/>
<path d="M0 0 C1.98 0 3.96 0 6 0 C6 0.99 6 1.98 6 3 C7.98 3 9.96 3 12 3 C12 9.93 12 16.86 12 24 C11.01 24 10.02 24 9 24 C9 18.06 9 12.12 9 6 C8.01 6 7.02 6 6 6 C6 10.95 6 15.9 6 21 C5.01 21 4.02 21 3 21 C3 15.06 3 9.12 3 3 C2.01 3 1.02 3 0 3 C0 2.01 0 1.02 0 0 Z " fill="#90583C" transform="translate(33,33)"/>
<path d="M0 0 C5.94 0 11.88 0 18 0 C18 2.97 18 5.94 18 9 C15.03 9 12.06 9 9 9 C9 8.01 9 7.02 9 6 C5.04 6 1.08 6 -3 6 C-3 5.01 -3 4.02 -3 3 C-2.01 3 -1.02 3 0 3 C0 2.01 0 1.02 0 0 Z " fill="#8E553D" transform="translate(126,24)"/>
<path d="M0 0 C0.99 0 1.98 0 3 0 C3 0.99 3 1.98 3 3 C11.91 3 20.82 3 30 3 C30 3.99 30 4.98 30 6 C24.06 6 18.12 6 12 6 C12 6.99 12 7.98 12 9 C9.03 9 6.06 9 3 9 C3 8.01 3 7.02 3 6 C1.02 6 -0.96 6 -3 6 C-3 5.01 -3 4.02 -3 3 C-2.01 3 -1.02 3 0 3 C0 2.01 0 1.02 0 0 Z " fill="#FFFBF4" transform="translate(36,27)"/>
<path d="M0 0 C0.99 0 1.98 0 3 0 C3 5.94 3 11.88 3 18 C0.03 18 -2.94 18 -6 18 C-6 16.02 -6 14.04 -6 12 C-6.99 12 -7.98 12 -9 12 C-9 11.01 -9 10.02 -9 9 C-9.99 9 -10.98 9 -12 9 C-12 8.01 -12 7.02 -12 6 C-11.01 6 -10.02 6 -9 6 C-9 5.01 -9 4.02 -9 3 C-8.01 3 -7.02 3 -6 3 C-6 4.98 -6 6.96 -6 9 C-5.01 9 -4.02 9 -3 9 C-3 10.98 -3 12.96 -3 15 C-2.01 15 -1.02 15 0 15 C0 10.05 0 5.1 0 0 Z " fill="#64764D" transform="translate(39,39)"/>
<path d="M0 0 C0.99 0 1.98 0 3 0 C3 0.99 3 1.98 3 3 C6.96 3 10.92 3 15 3 C15 2.01 15 1.02 15 0 C16.98 0 18.96 0 21 0 C21 0.99 21 1.98 21 3 C21.99 3 22.98 3 24 3 C24 3.99 24 4.98 24 6 C14.1 6 4.2 6 -6 6 C-6 5.01 -6 4.02 -6 3 C-4.02 3 -2.04 3 0 3 C0 2.01 0 1.02 0 0 Z " fill="#FFF8EB" transform="translate(84,117)"/>
<path d="M0 0 C12.87 0 25.74 0 39 0 C39 0.99 39 1.98 39 3 C26.13 3 13.26 3 0 3 C0 2.01 0 1.02 0 0 Z " fill="#6D3924" transform="translate(0,117)"/>
<path d="M0 0 C0.99 0 1.98 0 3 0 C3 12.87 3 25.74 3 39 C2.01 39 1.02 39 0 39 C0 26.13 0 13.26 0 0 Z " fill="#FFF5E7" transform="translate(78,78)"/>
<path d="M0 0 C12.87 0 25.74 0 39 0 C39 0.99 39 1.98 39 3 C26.13 3 13.26 3 0 3 C0 2.01 0 1.02 0 0 Z " fill="#6C3924" transform="translate(0,72)"/>
<path d="M0 0 C2.97 0 5.94 0 9 0 C9 1.98 9 3.96 9 6 C0.09 6 -8.82 6 -18 6 C-18 5.01 -18 4.02 -18 3 C-12.06 3 -6.12 3 0 3 C0 2.01 0 1.02 0 0 Z " fill="#5F5A3C" transform="translate(54,120)"/>
<path d="M0 0 C2.31 0 4.62 0 7 0 C6.67 0.99 6.34 1.98 6 3 C5.01 3 4.02 3 3 3 C3 6.96 3 10.92 3 15 C5.97 15 8.94 15 12 15 C12 15.99 12 16.98 12 18 C9.03 18 6.06 18 3 18 C3 18.99 3 19.98 3 21 C2.01 21 1.02 21 0 21 C0 14.07 0 7.14 0 0 Z " fill="#FFF9F2" transform="translate(45,66)"/>
<path d="M0 0 C10.89 0 21.78 0 33 0 C33 0.99 33 1.98 33 3 C22.11 3 11.22 3 0 3 C0 2.01 0 1.02 0 0 Z " fill="#6D3823" transform="translate(111,120)"/>
<path d="M0 0 C10.89 0 21.78 0 33 0 C33 0.99 33 1.98 33 3 C22.11 3 11.22 3 0 3 C0 2.01 0 1.02 0 0 Z " fill="#6D3823" transform="translate(99,72)"/>
<path d="M0 0 C10.89 0 21.78 0 33 0 C33 0.99 33 1.98 33 3 C22.11 3 11.22 3 0 3 C0 2.01 0 1.02 0 0 Z " fill="#6C3825" transform="translate(99,60)"/>
<path d="M0 0 C0.99 0 1.98 0 3 0 C3 0.99 3 1.98 3 3 C5.97 3 8.94 3 12 3 C12 4.98 12 6.96 12 9 C10.02 9 8.04 9 6 9 C6 9.99 6 10.98 6 12 C5.01 12 4.02 12 3 12 C3 10.02 3 8.04 3 6 C2.01 6 1.02 6 0 6 C0 6.99 0 7.98 0 9 C-0.99 9 -1.98 9 -3 9 C-3 7.02 -3 5.04 -3 3 C-2.01 3 -1.02 3 0 3 C0 2.01 0 1.02 0 0 Z " fill="#C6863C" transform="translate(18,48)"/>
<path d="M0 0 C1.98 0 3.96 0 6 0 C6 1.98 6 3.96 6 6 C6.99 6 7.98 6 9 6 C9 6.99 9 7.98 9 9 C9.99 9 10.98 9 12 9 C12 9.99 12 10.98 12 12 C8.04 12 4.08 12 0 12 C0 8.04 0 4.08 0 0 Z " fill="#8D573D" transform="translate(0,39)"/>
<path d="M0 0 C9.9 0 19.8 0 30 0 C30 0.99 30 1.98 30 3 C29.01 3 28.02 3 27 3 C27 3.99 27 4.98 27 6 C26.01 6 25.02 6 24 6 C24 5.01 24 4.02 24 3 C16.08 3 8.16 3 0 3 C0 2.01 0 1.02 0 0 Z " fill="#6E391D" transform="translate(0,21)"/>
<path d="M0 0 C9.9 0 19.8 0 30 0 C30 0.99 30 1.98 30 3 C20.1 3 10.2 3 0 3 C0 2.01 0 1.02 0 0 Z " fill="#6D3924" transform="translate(27,132)"/>
<path d="M0 0 C1.98 0 3.96 0 6 0 C6 0.99 6 1.98 6 3 C5.01 3 4.02 3 3 3 C3 3.99 3 4.98 3 6 C2.01 6 1.02 6 0 6 C0 6.99 0 7.98 0 9 C-1.98 9 -3.96 9 -6 9 C-6 9.99 -6 10.98 -6 12 C-7.98 12 -9.96 12 -12 12 C-12 10.02 -12 8.04 -12 6 C-9.03 6 -6.06 6 -3 6 C-3 5.01 -3 4.02 -3 3 C-2.01 3 -1.02 3 0 3 C0 2.01 0 1.02 0 0 Z " fill="#565E41" transform="translate(60,78)"/>
<path d="M0 0 C6.93 0 13.86 0 21 0 C21 1.98 21 3.96 21 6 C20.01 6 19.02 6 18 6 C18 5.01 18 4.02 18 3 C13.05 3 8.1 3 3 3 C3 4.98 3 6.96 3 9 C2.01 9 1.02 9 0 9 C0 6.03 0 3.06 0 0 Z " fill="#6D3824" transform="translate(111,45)"/>
<path d="M0 0 C3.96 0 7.92 0 12 0 C12 2.97 12 5.94 12 9 C9.03 9 6.06 9 3 9 C3 7.02 3 5.04 3 3 C2.01 3 1.02 3 0 3 C0 2.01 0 1.02 0 0 Z " fill="#693929" transform="translate(132,9)"/>
<path d="M0 0 C4.95 0 9.9 0 15 0 C15 0.99 15 1.98 15 3 C11.04 3 7.08 3 3 3 C3 3.99 3 4.98 3 6 C1.02 6 -0.96 6 -3 6 C-3 6.99 -3 7.98 -3 9 C-3.99 9 -4.98 9 -6 9 C-6 8.01 -6 7.02 -6 6 C-6.99 6 -7.98 6 -9 6 C-9 5.01 -9 4.02 -9 3 C-6.03 3 -3.06 3 0 3 C0 2.01 0 1.02 0 0 Z " fill="#5A501E" transform="translate(117,6)"/>
<path d="M0 0 C8.91 0 17.82 0 27 0 C27 0.99 27 1.98 27 3 C18.09 3 9.18 3 0 3 C0 2.01 0 1.02 0 0 Z " fill="#6C3924" transform="translate(0,135)"/>
<path d="M0 0 C3.96 0 7.92 0 12 0 C12 1.98 12 3.96 12 6 C7.05 6 2.1 6 -3 6 C-3 5.01 -3 4.02 -3 3 C-2.01 3 -1.02 3 0 3 C0 2.01 0 1.02 0 0 Z " fill="#663C25" transform="translate(66,78)"/>
<path d="M0 0 C0.99 0 1.98 0 3 0 C3 8.91 3 17.82 3 27 C2.01 27 1.02 27 0 27 C0 18.09 0 9.18 0 0 Z " fill="#FFFAE7" transform="translate(39,63)"/>
<path d="M0 0 C3.96 0 7.92 0 12 0 C12 2.97 12 5.94 12 9 C11.01 9 10.02 9 9 9 C9 7.02 9 5.04 9 3 C8.01 3 7.02 3 6 3 C6 3.99 6 4.98 6 6 C5.01 6 4.02 6 3 6 C3 6.99 3 7.98 3 9 C2.01 9 1.02 9 0 9 C0 6.03 0 3.06 0 0 Z " fill="#536528" transform="translate(24,39)"/>
<path d="M0 0 C8.91 0 17.82 0 27 0 C27 0.99 27 1.98 27 3 C18.09 3 9.18 3 0 3 C0 2.01 0 1.02 0 0 Z " fill="#6C3825" transform="translate(108,39)"/>
<path d="M0 0 C0.99 0 1.98 0 3 0 C3 8.91 3 17.82 3 27 C2.01 27 1.02 27 0 27 C0 18.09 0 9.18 0 0 Z " fill="#FFF5E7" transform="translate(78,36)"/>
<path d="M0 0 C1.98 0 3.96 0 6 0 C6 0.99 6 1.98 6 3 C10.95 3 15.9 3 21 3 C21 3.99 21 4.98 21 6 C15.06 6 9.12 6 3 6 C3 5.01 3 4.02 3 3 C2.01 3 1.02 3 0 3 C0 2.01 0 1.02 0 0 Z " fill="#6D3824" transform="translate(57,135)"/>
<path d="M0 0 C2.97 0 5.94 0 9 0 C9 1.98 9 3.96 9 6 C4.05 6 -0.9 6 -6 6 C-6 5.01 -6 4.02 -6 3 C-4.02 3 -2.04 3 0 3 C0 2.01 0 1.02 0 0 Z " fill="#69392A" transform="translate(69,102)"/>
<path d="M0 0 C2.97 0 5.94 0 9 0 C9 0.99 9 1.98 9 3 C9.99 3 10.98 3 12 3 C12 2.01 12 1.02 12 0 C12.99 0 13.98 0 15 0 C15 0.99 15 1.98 15 3 C15.99 3 16.98 3 18 3 C18 3.99 18 4.98 18 6 C14.04 6 10.08 6 6 6 C6 5.01 6 4.02 6 3 C4.02 3 2.04 3 0 3 C0 2.01 0 1.02 0 0 Z " fill="#FCBF35" transform="translate(15,24)"/>
<path d="M0 0 C1.98 0 3.96 0 6 0 C6 3.96 6 7.92 6 12 C4.02 12 2.04 12 0 12 C0 8.04 0 4.08 0 0 Z " fill="#8D573D" transform="translate(0,24)"/>
<path d="M0 0 C6.93 0 13.86 0 21 0 C21 0.99 21 1.98 21 3 C14.07 3 7.14 3 0 3 C0 2.01 0 1.02 0 0 Z " fill="#6C3926" transform="translate(33,138)"/>
<path d="M0 0 C6.93 0 13.86 0 21 0 C21 0.99 21 1.98 21 3 C14.07 3 7.14 3 0 3 C0 2.01 0 1.02 0 0 Z " fill="#6D3824" transform="translate(123,105)"/>
<path d="M0 0 C0.99 0 1.98 0 3 0 C3 6.93 3 13.86 3 21 C2.01 21 1.02 21 0 21 C0 14.07 0 7.14 0 0 Z " fill="#855B3A" transform="translate(42,66)"/>
<path d="M0 0 C6.93 0 13.86 0 21 0 C21 0.99 21 1.98 21 3 C14.07 3 7.14 3 0 3 C0 2.01 0 1.02 0 0 Z " fill="#60825A" transform="translate(42,60)"/>
<path d="M0 0 C6.93 0 13.86 0 21 0 C21 0.99 21 1.98 21 3 C14.07 3 7.14 3 0 3 C0 2.01 0 1.02 0 0 Z " fill="#6D3824" transform="translate(114,54)"/>
<path d="M0 0 C0.99 0 1.98 0 3 0 C3 0.99 3 1.98 3 3 C4.98 3 6.96 3 9 3 C9 4.98 9 6.96 9 9 C6.03 9 3.06 9 0 9 C0 6.03 0 3.06 0 0 Z " fill="#558A4F" transform="translate(108,27)"/>
<path d="M0 0 C0.99 0 1.98 0 3 0 C3 0.99 3 1.98 3 3 C4.98 3 6.96 3 9 3 C9 4.98 9 6.96 9 9 C7.02 9 5.04 9 3 9 C3 8.01 3 7.02 3 6 C1.02 6 -0.96 6 -3 6 C-3 5.01 -3 4.02 -3 3 C-2.01 3 -1.02 3 0 3 C0 2.01 0 1.02 0 0 Z " fill="#FFFCEB" transform="translate(36,27)"/>
<path d="M0 0 C2.97 0 5.94 0 9 0 C9 0.99 9 1.98 9 3 C10.98 3 12.96 3 15 3 C15 3.99 15 4.98 15 6 C11.04 6 7.08 6 3 6 C3 5.01 3 4.02 3 3 C2.01 3 1.02 3 0 3 C0 2.01 0 1.02 0 0 Z " fill="#A97137" transform="translate(6,24)"/>
<path d="M0 0 C0.99 0 1.98 0 3 0 C3 1.98 3 3.96 3 6 C5.97 6 8.94 6 12 6 C12 6.99 12 7.98 12 9 C8.04 9 4.08 9 0 9 C0 8.01 0 7.02 0 6 C-0.99 6 -1.98 6 -3 6 C-3 5.01 -3 4.02 -3 3 C-2.01 3 -1.02 3 0 3 C0 2.01 0 1.02 0 0 Z " fill="#8F553D" transform="translate(132,12)"/>
<path d="M0 0 C5.94 0 11.88 0 18 0 C18 0.99 18 1.98 18 3 C12.06 3 6.12 3 0 3 C0 2.01 0 1.02 0 0 Z " fill="#6D3823" transform="translate(78,135)"/>
<path d="M0 0 C0.99 0 1.98 0 3 0 C3 5.94 3 11.88 3 18 C2.01 18 1.02 18 0 18 C0 12.06 0 6.12 0 0 Z " fill="#FFFDEC" transform="translate(39,96)"/>
<path d="M0 0 C0.99 0 1.98 0 3 0 C3 1.98 3 3.96 3 6 C3.99 6 4.98 6 6 6 C6 5.01 6 4.02 6 3 C6.99 3 7.98 3 9 3 C9 4.98 9 6.96 9 9 C6.03 9 3.06 9 0 9 C0 6.03 0 3.06 0 0 Z " fill="#95581B" transform="translate(12,51)"/>
<path d="M0 0 C0.99 0 1.98 0 3 0 C3 5.94 3 11.88 3 18 C2.01 18 1.02 18 0 18 C0 12.06 0 6.12 0 0 Z " fill="#FFF8DA" transform="translate(39,39)"/>
<path d="M0 0 C2.97 0 5.94 0 9 0 C9 2.97 9 5.94 9 9 C8.01 9 7.02 9 6 9 C6 8.01 6 7.02 6 6 C5.01 6 4.02 6 3 6 C3 5.01 3 4.02 3 3 C2.01 3 1.02 3 0 3 C0 2.01 0 1.02 0 0 Z " fill="#FCBC3D" transform="translate(6,42)"/>
<path d="M0 0 C0.99 0 1.98 0 3 0 C3 1.98 3 3.96 3 6 C2.01 6 1.02 6 0 6 C0 8.97 0 11.94 0 15 C-0.99 15 -1.98 15 -3 15 C-3 11.04 -3 7.08 -3 3 C-2.01 3 -1.02 3 0 3 C0 2.01 0 1.02 0 0 Z " fill="#5B602F" transform="translate(108,15)"/>
<path d="M0 0 C3.96 0 7.92 0 12 0 C12 1.98 12 3.96 12 6 C11.01 6 10.02 6 9 6 C9 5.01 9 4.02 9 3 C8.01 3 7.02 3 6 3 C6 3.99 6 4.98 6 6 C5.01 6 4.02 6 3 6 C3 5.01 3 4.02 3 3 C2.01 3 1.02 3 0 3 C0 2.01 0 1.02 0 0 Z " fill="#905A1E" transform="translate(30,24)"/>
<path d="M0 0 C1.98 0 3.96 0 6 0 C6 0.99 6 1.98 6 3 C5.01 3 4.02 3 3 3 C3 3.99 3 4.98 3 6 C2.01 6 1.02 6 0 6 C0 6.99 0 7.98 0 9 C-1.98 9 -3.96 9 -6 9 C-6 8.01 -6 7.02 -6 6 C-5.01 6 -4.02 6 -3 6 C-3 5.01 -3 4.02 -3 3 C-2.01 3 -1.02 3 0 3 C0 2.01 0 1.02 0 0 Z " fill="#3D8533" transform="translate(120,15)"/>
<path d="M0 0 C3.96 0 7.92 0 12 0 C12 0.99 12 1.98 12 3 C9.03 3 6.06 3 3 3 C3 3.99 3 4.98 3 6 C2.01 6 1.02 6 0 6 C0 4.02 0 2.04 0 0 Z " fill="#FAFFE5" transform="translate(45,81)"/>
<path d="M0 0 C1.98 0 3.96 0 6 0 C6 0.99 6 1.98 6 3 C5.01 3 4.02 3 3 3 C3 3.99 3 4.98 3 6 C0.03 6 -2.94 6 -6 6 C-6 5.01 -6 4.02 -6 3 C-4.02 3 -2.04 3 0 3 C0 2.01 0 1.02 0 0 Z " fill="#755C3E" transform="translate(39,57)"/>
<path d="M0 0 C0.99 0 1.98 0 3 0 C3 0.99 3 1.98 3 3 C3.99 3 4.98 3 6 3 C6 3.99 6 4.98 6 6 C2.04 6 -1.92 6 -6 6 C-6 5.01 -6 4.02 -6 3 C-4.02 3 -2.04 3 0 3 C0 2.01 0 1.02 0 0 Z " fill="#804A00" transform="translate(6,45)"/>
<path d="M0 0 C0.99 0 1.98 0 3 0 C3 4.95 3 9.9 3 15 C2.01 15 1.02 15 0 15 C0 10.05 0 5.1 0 0 Z " fill="#6D3826" transform="translate(105,42)"/>
<path d="M0 0 C4.95 0 9.9 0 15 0 C15 0.99 15 1.98 15 3 C10.05 3 5.1 3 0 3 C0 2.01 0 1.02 0 0 Z " fill="#693A23" transform="translate(120,30)"/>
<path d="M0 0 C2.97 0 5.94 0 9 0 C9 0.99 9 1.98 9 3 C8.01 3 7.02 3 6 3 C6 3.99 6 4.98 6 6 C4.02 6 2.04 6 0 6 C0 4.02 0 2.04 0 0 Z " fill="#5FAC4B" transform="translate(111,24)"/>
<path d="M0 0 C3.96 0 7.92 0 12 0 C12 0.99 12 1.98 12 3 C11.01 3 10.02 3 9 3 C9 3.99 9 4.98 9 6 C8.01 6 7.02 6 6 6 C6 5.01 6 4.02 6 3 C4.02 3 2.04 3 0 3 C0 2.01 0 1.02 0 0 Z " fill="#794306" transform="translate(18,21)"/>
<path d="M0 0 C1.98 0 3.96 0 6 0 C6 0.99 6 1.98 6 3 C5.01 3 4.02 3 3 3 C3 5.97 3 8.94 3 12 C2.01 12 1.02 12 0 12 C0 8.04 0 4.08 0 0 Z " fill="#58622A" transform="translate(126,12)"/>
<path d="M0 0 C3.96 0 7.92 0 12 0 C12 0.99 12 1.98 12 3 C10.02 3 8.04 3 6 3 C6 3.99 6 4.98 6 6 C5.01 6 4.02 6 3 6 C3 5.01 3 4.02 3 3 C2.01 3 1.02 3 0 3 C0 2.01 0 1.02 0 0 Z " fill="#8EA35A" transform="translate(120,9)"/>
<path d="M0 0 C2.97 0 5.94 0 9 0 C9 1.98 9 3.96 9 6 C8.01 6 7.02 6 6 6 C6 5.01 6 4.02 6 3 C4.02 3 2.04 3 0 3 C0 2.01 0 1.02 0 0 Z " fill="#676037" transform="translate(54,120)"/>
<path d="M0 0 C3.96 0 7.92 0 12 0 C12 0.99 12 1.98 12 3 C8.04 3 4.08 3 0 3 C0 2.01 0 1.02 0 0 Z " fill="#6D3823" transform="translate(27,108)"/>
<path d="M0 0 C3.96 0 7.92 0 12 0 C12 0.99 12 1.98 12 3 C8.04 3 4.08 3 0 3 C0 2.01 0 1.02 0 0 Z " fill="#6D3924" transform="translate(99,105)"/>
<path d="M0 0 C3.96 0 7.92 0 12 0 C12 0.99 12 1.98 12 3 C8.04 3 4.08 3 0 3 C0 2.01 0 1.02 0 0 Z " fill="#6C3924" transform="translate(111,102)"/>
<path d="M0 0 C3.96 0 7.92 0 12 0 C12 0.99 12 1.98 12 3 C8.04 3 4.08 3 0 3 C0 2.01 0 1.02 0 0 Z " fill="#8E5739" transform="translate(66,78)"/>
<path d="M0 0 C3.96 0 7.92 0 12 0 C12 0.99 12 1.98 12 3 C8.04 3 4.08 3 0 3 C0 2.01 0 1.02 0 0 Z " fill="#6D3824" transform="translate(132,69)"/>
<path d="M0 0 C3.96 0 7.92 0 12 0 C12 0.99 12 1.98 12 3 C8.04 3 4.08 3 0 3 C0 2.01 0 1.02 0 0 Z " fill="#6C3926" transform="translate(132,63)"/>
<path d="M0 0 C3.96 0 7.92 0 12 0 C12 0.99 12 1.98 12 3 C8.04 3 4.08 3 0 3 C0 2.01 0 1.02 0 0 Z " fill="#426B35" transform="translate(42,63)"/>
<path d="M0 0 C3.96 0 7.92 0 12 0 C12 0.99 12 1.98 12 3 C8.04 3 4.08 3 0 3 C0 2.01 0 1.02 0 0 Z " fill="#6D3924" transform="translate(60,48)"/>
<path d="M0 0 C0.99 0 1.98 0 3 0 C3 2.97 3 5.94 3 9 C2.01 9 1.02 9 0 9 C0 8.01 0 7.02 0 6 C-0.99 6 -1.98 6 -3 6 C-3 5.01 -3 4.02 -3 3 C-2.01 3 -1.02 3 0 3 C0 2.01 0 1.02 0 0 Z " fill="#657C3F" transform="translate(30,42)"/>
<path d="M0 0 C0.99 0 1.98 0 3 0 C3 3.96 3 7.92 3 12 C2.01 12 1.02 12 0 12 C0 8.04 0 4.08 0 0 Z " fill="#6C3823" transform="translate(135,42)"/>
<path d="M0 0 C1.98 0 3.96 0 6 0 C6 2.97 6 5.94 6 9 C5.01 9 4.02 9 3 9 C3 7.02 3 5.04 3 3 C2.01 3 1.02 3 0 3 C0 2.01 0 1.02 0 0 Z " fill="#524C1E" transform="translate(30,39)"/>
<path d="M0 0 C3.96 0 7.92 0 12 0 C12 0.99 12 1.98 12 3 C8.04 3 4.08 3 0 3 C0 2.01 0 1.02 0 0 Z " fill="#6F3823" transform="translate(60,36)"/>
<path d="M0 0 C3.96 0 7.92 0 12 0 C12 0.99 12 1.98 12 3 C8.04 3 4.08 3 0 3 C0 2.01 0 1.02 0 0 Z " fill="#6D3823" transform="translate(72,33)"/>
<path d="M0 0 C3.96 0 7.92 0 12 0 C12 0.99 12 1.98 12 3 C8.04 3 4.08 3 0 3 C0 2.01 0 1.02 0 0 Z " fill="#724202" transform="translate(21,33)"/>
<path d="M0 0 C2.97 0 5.94 0 9 0 C9 0.99 9 1.98 9 3 C6.03 3 3.06 3 0 3 C0 2.01 0 1.02 0 0 Z " fill="#6D3824" transform="translate(21,96)"/>
<path d="M0 0 C2.97 0 5.94 0 9 0 C9 0.99 9 1.98 9 3 C6.03 3 3.06 3 0 3 C0 2.01 0 1.02 0 0 Z " fill="#6D3823" transform="translate(18,81)"/>
<path d="M0 0 C2.97 0 5.94 0 9 0 C9 0.99 9 1.98 9 3 C6.03 3 3.06 3 0 3 C0 2.01 0 1.02 0 0 Z " fill="#6D3823" transform="translate(6,81)"/>
<path d="M0 0 C0.99 0 1.98 0 3 0 C3 2.97 3 5.94 3 9 C2.01 9 1.02 9 0 9 C0 6.03 0 3.06 0 0 Z " fill="#785138" transform="translate(42,66)"/>
<path d="M0 0 C2.97 0 5.94 0 9 0 C9 0.99 9 1.98 9 3 C6.03 3 3.06 3 0 3 C0 2.01 0 1.02 0 0 Z " fill="#8AA364" transform="translate(42,60)"/>
<path d="M0 0 C2.97 0 5.94 0 9 0 C9 0.99 9 1.98 9 3 C6.03 3 3.06 3 0 3 C0 2.01 0 1.02 0 0 Z " fill="#694507" transform="translate(21,48)"/>
<path d="M0 0 C0.99 0 1.98 0 3 0 C3 2.97 3 5.94 3 9 C2.01 9 1.02 9 0 9 C0 6.03 0 3.06 0 0 Z " fill="#C58112" transform="translate(15,42)"/>
<path d="M0 0 C0.99 0 1.98 0 3 0 C3 2.97 3 5.94 3 9 C2.01 9 1.02 9 0 9 C0 6.03 0 3.06 0 0 Z " fill="#524D1D" transform="translate(21,39)"/>
<path d="M0 0 C2.97 0 5.94 0 9 0 C9 0.99 9 1.98 9 3 C6.03 3 3.06 3 0 3 C0 2.01 0 1.02 0 0 Z " fill="#6D3726" transform="translate(135,33)"/>
<path d="M0 0 C2.97 0 5.94 0 9 0 C9 0.99 9 1.98 9 3 C6.03 3 3.06 3 0 3 C0 2.01 0 1.02 0 0 Z " fill="#4F633D" transform="translate(108,33)"/>
<path d="M0 0 C2.97 0 5.94 0 9 0 C9 0.99 9 1.98 9 3 C6.03 3 3.06 3 0 3 C0 2.01 0 1.02 0 0 Z " fill="#C88013" transform="translate(12,33)"/>
<path d="M0 0 C0.99 0 1.98 0 3 0 C3 0.99 3 1.98 3 3 C3.99 3 4.98 3 6 3 C6 3.99 6 4.98 6 6 C4.02 6 2.04 6 0 6 C0 4.02 0 2.04 0 0 Z " fill="#FAB75F" transform="translate(9,33)"/>
<path d="M0 0 C0.99 0 1.98 0 3 0 C3 1.98 3 3.96 3 6 C1.02 6 -0.96 6 -3 6 C-3 5.01 -3 4.02 -3 3 C-2.01 3 -1.02 3 0 3 C0 2.01 0 1.02 0 0 Z " fill="#F4D089" transform="translate(36,27)"/>
<path d="M0 0 C2.97 0 5.94 0 9 0 C9 0.99 9 1.98 9 3 C6.03 3 3.06 3 0 3 C0 2.01 0 1.02 0 0 Z " fill="#FFB948" transform="translate(12,30)"/>
<path d="M0 0 C0.99 0 1.98 0 3 0 C3 0.99 3 1.98 3 3 C3.99 3 4.98 3 6 3 C6 3.99 6 4.98 6 6 C4.02 6 2.04 6 0 6 C0 4.02 0 2.04 0 0 Z " fill="#F6BD54" transform="translate(27,24)"/>
<path d="M0 0 C2.97 0 5.94 0 9 0 C9 0.99 9 1.98 9 3 C6.03 3 3.06 3 0 3 C0 2.01 0 1.02 0 0 Z " fill="#A96902" transform="translate(12,27)"/>
<path d="M0 0 C0.99 0 1.98 0 3 0 C3 1.98 3 3.96 3 6 C1.02 6 -0.96 6 -3 6 C-3 5.01 -3 4.02 -3 3 C-2.01 3 -1.02 3 0 3 C0 2.01 0 1.02 0 0 Z " fill="#5C975D" transform="translate(123,18)"/>
<path d="M0 0 C0.99 0 1.98 0 3 0 C3 1.98 3 3.96 3 6 C1.02 6 -0.96 6 -3 6 C-3 5.01 -3 4.02 -3 3 C-2.01 3 -1.02 3 0 3 C0 2.01 0 1.02 0 0 Z " fill="#525D1A" transform="translate(108,15)"/>
<path d="M0 0 C2.97 0 5.94 0 9 0 C9 0.99 9 1.98 9 3 C6.03 3 3.06 3 0 3 C0 2.01 0 1.02 0 0 Z " fill="#7EAF48" transform="translate(114,12)"/>
<path d="M0 0 C2.97 0 5.94 0 9 0 C9 0.99 9 1.98 9 3 C6.03 3 3.06 3 0 3 C0 2.01 0 1.02 0 0 Z " fill="#4F4B0F" transform="translate(123,6)"/>
<path d="M0 0 C2.31 0 4.62 0 7 0 C6.67 0.99 6.34 1.98 6 3 C4.02 3 2.04 3 0 3 C0 2.01 0 1.02 0 0 Z " fill="#FDFFE9" transform="translate(45,66)"/>
<path d="M0 0 C1.98 0 3.96 0 6 0 C6 0.99 6 1.98 6 3 C4.02 3 2.04 3 0 3 C0 2.01 0 1.02 0 0 Z " fill="#6C3826" transform="translate(78,129)"/>
<path d="M0 0 C1.98 0 3.96 0 6 0 C6 0.99 6 1.98 6 3 C4.02 3 2.04 3 0 3 C0 2.01 0 1.02 0 0 Z " fill="#53642F" transform="translate(54,123)"/>
<path d="M0 0 C1.98 0 3.96 0 6 0 C6 0.99 6 1.98 6 3 C4.02 3 2.04 3 0 3 C0 2.01 0 1.02 0 0 Z " fill="#739362" transform="translate(54,120)"/>
<path d="M0 0 C0.99 0 1.98 0 3 0 C3 1.98 3 3.96 3 6 C2.01 6 1.02 6 0 6 C0 4.02 0 2.04 0 0 Z " fill="#75662A" transform="translate(63,114)"/>
<path d="M0 0 C0.99 0 1.98 0 3 0 C3 1.98 3 3.96 3 6 C2.01 6 1.02 6 0 6 C0 4.02 0 2.04 0 0 Z " fill="#9A9C64" transform="translate(60,114)"/>
<path d="M0 0 C1.98 0 3.96 0 6 0 C6 0.99 6 1.98 6 3 C4.02 3 2.04 3 0 3 C0 2.01 0 1.02 0 0 Z " fill="#6D3826" transform="translate(114,108)"/>
<path d="M0 0 C0.99 0 1.98 0 3 0 C3 1.98 3 3.96 3 6 C2.01 6 1.02 6 0 6 C0 4.02 0 2.04 0 0 Z " fill="#7F8C69" transform="translate(36,96)"/>
<path d="M0 0 C1.98 0 3.96 0 6 0 C6 0.99 6 1.98 6 3 C4.02 3 2.04 3 0 3 C0 2.01 0 1.02 0 0 Z " fill="#6D3826" transform="translate(30,99)"/>
<path d="M0 0 C0.99 0 1.98 0 3 0 C3 1.98 3 3.96 3 6 C2.01 6 1.02 6 0 6 C0 4.02 0 2.04 0 0 Z " fill="#F3FFE8" transform="translate(39,96)"/>
<path d="M0 0 C1.98 0 3.96 0 6 0 C6 0.99 6 1.98 6 3 C4.02 3 2.04 3 0 3 C0 2.01 0 1.02 0 0 Z " fill="#486642" transform="translate(39,93)"/>
<path d="M0 0 C1.98 0 3.96 0 6 0 C6 0.99 6 1.98 6 3 C4.02 3 2.04 3 0 3 C0 2.01 0 1.02 0 0 Z " fill="#F4FFEF" transform="translate(48,90)"/>
<path d="M0 0 C1.98 0 3.96 0 6 0 C6 0.99 6 1.98 6 3 C4.02 3 2.04 3 0 3 C0 2.01 0 1.02 0 0 Z " fill="#F9FFE9" transform="translate(54,87)"/>
<path d="M0 0 C1.98 0 3.96 0 6 0 C6 0.99 6 1.98 6 3 C4.02 3 2.04 3 0 3 C0 2.01 0 1.02 0 0 Z " fill="#4E7B3B" transform="translate(48,87)"/>
<path d="M0 0 C1.98 0 3.96 0 6 0 C6 0.99 6 1.98 6 3 C4.02 3 2.04 3 0 3 C0 2.01 0 1.02 0 0 Z " fill="#89A466" transform="translate(42,87)"/>
<path d="M0 0 C1.98 0 3.96 0 6 0 C6 0.99 6 1.98 6 3 C4.02 3 2.04 3 0 3 C0 2.01 0 1.02 0 0 Z " fill="#7EA968" transform="translate(48,84)"/>
<path d="M0 0 C1.98 0 3.96 0 6 0 C6 0.99 6 1.98 6 3 C4.02 3 2.04 3 0 3 C0 2.01 0 1.02 0 0 Z " fill="#626D53" transform="translate(60,78)"/>
<path d="M0 0 C0.99 0 1.98 0 3 0 C3 1.98 3 3.96 3 6 C2.01 6 1.02 6 0 6 C0 4.02 0 2.04 0 0 Z " fill="#65613E" transform="translate(63,60)"/>
<path d="M0 0 C1.98 0 3.96 0 6 0 C6 0.99 6 1.98 6 3 C4.02 3 2.04 3 0 3 C0 2.01 0 1.02 0 0 Z " fill="#5A6A2B" transform="translate(42,63)"/>
<path d="M0 0 C1.98 0 3.96 0 6 0 C6 0.99 6 1.98 6 3 C4.02 3 2.04 3 0 3 C0 2.01 0 1.02 0 0 Z " fill="#716E4F" transform="translate(39,57)"/>
<path d="M0 0 C1.98 0 3.96 0 6 0 C6 0.99 6 1.98 6 3 C4.02 3 2.04 3 0 3 C0 2.01 0 1.02 0 0 Z " fill="#8E6011" transform="translate(24,57)"/>
<path d="M0 0 C0.99 0 1.98 0 3 0 C3 1.98 3 3.96 3 6 C2.01 6 1.02 6 0 6 C0 4.02 0 2.04 0 0 Z " fill="#516627" transform="translate(30,51)"/>
<path d="M0 0 C1.98 0 3.96 0 6 0 C6 0.99 6 1.98 6 3 C4.02 3 2.04 3 0 3 C0 2.01 0 1.02 0 0 Z " fill="#EDBE64" transform="translate(24,54)"/>
<path d="M0 0 C0.99 0 1.98 0 3 0 C3 1.98 3 3.96 3 6 C2.01 6 1.02 6 0 6 C0 4.02 0 2.04 0 0 Z " fill="#FAB95C" transform="translate(15,51)"/>
<path d="M0 0 C0.99 0 1.98 0 3 0 C3 1.98 3 3.96 3 6 C2.01 6 1.02 6 0 6 C0 4.02 0 2.04 0 0 Z " fill="#975B08" transform="translate(12,51)"/>
<path d="M0 0 C0.99 0 1.98 0 3 0 C3 1.98 3 3.96 3 6 C2.01 6 1.02 6 0 6 C0 4.02 0 2.04 0 0 Z " fill="#73955C" transform="translate(33,48)"/>
<path d="M0 0 C1.98 0 3.96 0 6 0 C6 0.99 6 1.98 6 3 C4.02 3 2.04 3 0 3 C0 2.01 0 1.02 0 0 Z " fill="#6E3A1D" transform="translate(0,48)"/>
<path d="M0 0 C0.99 0 1.98 0 3 0 C3 1.98 3 3.96 3 6 C2.01 6 1.02 6 0 6 C0 4.02 0 2.04 0 0 Z " fill="#6D3924" transform="translate(81,45)"/>
<path d="M0 0 C1.98 0 3.96 0 6 0 C6 0.99 6 1.98 6 3 C4.02 3 2.04 3 0 3 C0 2.01 0 1.02 0 0 Z " fill="#6D3924" transform="translate(72,45)"/>
<path d="M0 0 C0.99 0 1.98 0 3 0 C3 1.98 3 3.96 3 6 C2.01 6 1.02 6 0 6 C0 4.02 0 2.04 0 0 Z " fill="#FFF1CA" transform="translate(39,39)"/>
<path d="M0 0 C1.98 0 3.96 0 6 0 C6 0.99 6 1.98 6 3 C4.02 3 2.04 3 0 3 C0 2.01 0 1.02 0 0 Z " fill="#623D2D" transform="translate(99,36)"/>
<path d="M0 0 C1.98 0 3.96 0 6 0 C6 0.99 6 1.98 6 3 C4.02 3 2.04 3 0 3 C0 2.01 0 1.02 0 0 Z " fill="#6E391F" transform="translate(0,36)"/>
<path d="M0 0 C1.98 0 3.96 0 6 0 C6 0.99 6 1.98 6 3 C4.02 3 2.04 3 0 3 C0 2.01 0 1.02 0 0 Z " fill="#FFF6E5" transform="translate(60,30)"/>
<path d="M0 0 C0.99 0 1.98 0 3 0 C3 1.98 3 3.96 3 6 C2.01 6 1.02 6 0 6 C0 4.02 0 2.04 0 0 Z " fill="#FFFCD3" transform="translate(39,30)"/>
<path d="M0 0 C1.98 0 3.96 0 6 0 C6 0.99 6 1.98 6 3 C4.02 3 2.04 3 0 3 C0 2.01 0 1.02 0 0 Z " fill="#69B65D" transform="translate(111,27)"/>
<path d="M0 0 C0.99 0 1.98 0 3 0 C3 1.98 3 3.96 3 6 C2.01 6 1.02 6 0 6 C0 4.02 0 2.04 0 0 Z " fill="#79AE57" transform="translate(108,21)"/>
<path d="M0 0 C1.98 0 3.96 0 6 0 C6 0.99 6 1.98 6 3 C4.02 3 2.04 3 0 3 C0 2.01 0 1.02 0 0 Z " fill="#F6BB5C" transform="translate(15,24)"/>
<path d="M0 0 C0.99 0 1.98 0 3 0 C3 1.98 3 3.96 3 6 C2.01 6 1.02 6 0 6 C0 4.02 0 2.04 0 0 Z " fill="#504628" transform="translate(126,18)"/>
<path d="M0 0 C1.98 0 3.96 0 6 0 C6 0.99 6 1.98 6 3 C4.02 3 2.04 3 0 3 C0 2.01 0 1.02 0 0 Z " fill="#408330" transform="translate(114,21)"/>
<path d="M0 0 C1.98 0 3.96 0 6 0 C6 0.99 6 1.98 6 3 C4.02 3 2.04 3 0 3 C0 2.01 0 1.02 0 0 Z " fill="#3B741A" transform="translate(120,15)"/>
<path d="M0 0 C1.98 0 3.96 0 6 0 C6 0.99 6 1.98 6 3 C4.02 3 2.04 3 0 3 C0 2.01 0 1.02 0 0 Z " fill="#71B743" transform="translate(114,15)"/>
<path d="M0 0 C1.98 0 3.96 0 6 0 C6 0.99 6 1.98 6 3 C4.02 3 2.04 3 0 3 C0 2.01 0 1.02 0 0 Z " fill="#564619" transform="translate(117,6)"/>
</svg>
